<svg xmlns="http://www.w3.org/2000/svg" width="540" height="534" viewBox="0 0 540 534" role="img" aria-label="Catalyst">
<style>.wm{fill:#001334}</style>
<g transform="translate(64,0)">
<path d="M0 0 C3.588 1.328 6.667 2.921 9.875 5 C10.833 5.62 11.791 6.24 12.777 6.879 C17.617 10.064 22.443 13.269 27.254 16.496 C29.689 18.129 32.134 19.746 34.59 21.348 C35.132 21.703 35.132 21.703 37.875 23.5 C38.842 24.129 39.809 24.758 40.805 25.406 C43 27 43 27 44 29 C31.539 56.797 3.036 78.978 -23 93 C-23.938 93.522 -24.877 94.044 -25.844 94.582 C-57.87 111.63 -95.773 114.736 -131 108 C-131.349 107.936 -131.349 107.936 -133.117 107.61 C-165.331 101.442 -195.575 81.735 -217.75 58.062 C-218.252 57.531 -218.753 57 -219.27 56.452 C-221.971 53.482 -223.785 50.837 -225 47 C-224.469 46.72 -223.938 46.441 -223.391 46.152 C-218.033 43.112 -215.45 40.685 -213 35 C-212.656 32.668 -212.321 30.335 -212 28 C-209 26 -209 26 -206.562 26.188 C-203.829 27.054 -202.222 28.222 -200 30 C-194.555 31.815 -188.999 31.74 -183.625 29.75 C-181.067 28.044 -179.049 26.286 -177 24 C-173.797 25.416 -171.639 27.141 -169.125 29.562 C-145.434 50.998 -116.099 57.311 -85 56 C-62.321 54.176 -38.145 42.426 -22.258 26.199 C-20 24 -20 24 -18 24 C-17.745 23.424 -17.49 22.848 -17.227 22.254 C-15.872 19.765 -14.313 18.003 -12.375 15.938 C-7.814 10.926 -3.893 5.539 0 0 Z " fill="#423292" transform="translate(361,240)"/>
<path d="M0 0 C1.158 0.379 2.315 0.758 3.508 1.148 C25.795 9.025 44.49 23.464 61 40 C61.55 40.516 62.101 41.031 62.668 41.562 C71.289 49.718 78.258 59.66 84 70 C80.191 74.078 76.155 77.132 71.504 80.195 C70.793 80.669 70.082 81.144 69.349 81.632 C67.852 82.628 66.354 83.621 64.853 84.612 C62.569 86.121 60.291 87.64 58.014 89.16 C56.552 90.131 55.091 91.101 53.629 92.07 C52.954 92.52 52.279 92.97 51.583 93.434 C47.83 95.905 44.073 98.076 40 100 C39.673 99.557 39.346 99.114 39.01 98.658 C30.16 86.695 21.886 76.138 10 67 C9.219 66.392 8.438 65.783 7.633 65.156 C-4.272 56.338 -17.741 50.715 -32 47 C-32.933 46.754 -33.867 46.508 -34.828 46.254 C-63.239 40.231 -92.024 47.732 -116.216 62.821 C-121.626 66.397 -126.685 70.518 -131.109 75.262 C-133 77 -133 77 -136 77 C-136.598 76.237 -137.196 75.474 -137.812 74.688 C-141.026 70.739 -143.748 69.254 -148.844 68.68 C-155.059 68.449 -159.249 68.597 -164 73 C-165.777 74.943 -167.387 76.912 -169 79 C-171.434 78.328 -171.434 78.328 -174 77 C-174.785 74.609 -174.785 74.609 -175.062 71.75 C-175.75 66.886 -176.685 63.788 -180 60 C-182.75 58.125 -182.75 58.125 -185 57 C-177.602 35.39 -148.604 17.602 -129.195 7.547 C-88.529 -12.114 -42.642 -14.471 0 0 Z " fill="#0E9A9E" transform="translate(319,15)"/>
<path d="M0 0 C3.671 0.064 4.906 0.428 8.25 2.312 C10.927 5.512 11.008 5.908 11.324 9.723 C11.945 12.758 12.372 14.017 14.802 15.992 C17.546 17.456 20.313 18.687 23.188 19.875 C24.228 20.337 25.269 20.8 26.341 21.276 C28.477 22.222 30.619 23.154 32.768 24.071 C36.238 25.557 39.67 27.116 43.102 28.686 C46.393 30.185 49.697 31.654 53 33.124 C58.462 35.554 63.919 37.996 69.375 40.438 C69.975 40.705 69.975 40.705 73.009 42.061 C80.094 45.232 87.158 48.445 94.207 51.695 C94.997 52.059 95.787 52.423 96.601 52.797 C100.478 54.582 104.354 56.372 108.225 58.17 C109.647 58.826 111.07 59.481 112.492 60.137 C112.811 60.286 112.811 60.286 114.424 61.041 C119.474 63.357 124.393 65.375 130 65.375 C133.064 65.375 134.381 65.53 136.812 67.375 C138.735 70.359 139.837 72.357 139.75 75.938 C138.527 79.117 137.297 81.021 134.812 83.375 C131.5 84.125 131.5 84.125 127.812 84.375 C119.26 85.046 111.794 88.856 104.23 92.672 C98.196 95.71 92.071 98.543 85.938 101.375 C84.716 101.94 83.496 102.505 82.275 103.071 C79.737 104.246 77.198 105.421 74.66 106.595 C65.023 111.052 55.396 115.53 45.767 120.003 C43.227 121.183 40.686 122.359 38.145 123.535 C31.395 126.663 24.715 129.892 18.105 133.309 C15.812 134.375 15.812 134.375 13.812 134.375 C13.798 134.967 13.784 135.558 13.77 136.168 C13.518 140.332 13.167 142.844 10.812 146.375 C6.85 149.017 3.558 149.801 -1.188 149.375 C-4.672 147.728 -6.515 146.398 -8.625 143.188 C-9.453 139.049 -9.42 135.432 -8.188 131.375 C-5.527 128.116 -4.076 126.753 0 125.938 C4.283 125.706 6.112 125.802 9.559 128.621 C12.812 130.375 12.812 130.375 14.768 130.05 C17.053 129.159 19.197 128.127 21.375 127 C22.098 126.651 22.82 126.301 23.564 125.941 C25.12 125.189 26.67 124.426 28.216 123.655 C39.707 117.99 51.508 112.959 63.246 107.831 C70.689 104.577 78.085 101.31 85.32 97.611 C90.63 94.978 96.078 92.64 101.5 90.25 C102.684 89.725 103.868 89.201 105.088 88.66 C110.649 86.199 116.215 83.752 121.812 81.375 C113.661 82.963 105.546 84.705 97.438 86.5 C96.705 86.662 95.972 86.824 95.217 86.991 C83.424 89.605 71.659 92.336 59.902 95.109 C59.198 95.276 58.493 95.442 57.767 95.613 C51.152 97.174 44.537 98.738 37.923 100.304 C23.13 103.808 8.337 107.3 -6.512 110.562 C-7.583 110.798 -8.655 111.034 -9.759 111.276 C-14.659 112.35 -19.561 113.411 -24.467 114.457 C-26.157 114.823 -27.848 115.189 -29.539 115.555 C-30.297 115.712 -31.055 115.87 -31.836 116.032 C-36.962 117.149 -36.962 117.149 -39.188 119.375 C-40.494 121.423 -41.729 123.508 -42.969 125.598 C-44.188 127.375 -44.188 127.375 -46.188 128.375 C-50.975 128.959 -54.358 128.805 -58.688 126.562 C-62.024 123.643 -62.131 121.947 -62.562 117.562 C-62.538 114.237 -61.924 112.509 -59.812 109.938 C-56.284 106.493 -54.262 105.979 -49.297 106.016 C-45.554 106.653 -43.766 108.668 -41.188 111.375 C-41.188 112.035 -41.188 112.695 -41.188 113.375 C-40.404 113.189 -39.621 113.003 -38.814 112.812 C-24.33 109.382 -9.851 105.991 4.744 103.062 C9.262 102.148 13.733 101.156 18.195 100 C26.3 97.941 34.5 96.35 42.695 94.702 C59.668 91.286 76.602 87.732 93.504 83.98 C99.251 82.707 105.008 81.484 110.769 80.275 C111.643 80.091 112.516 79.908 113.415 79.718 C115.548 79.27 117.68 78.823 119.812 78.375 C103.062 78.235 86.312 78.129 69.561 78.064 C61.784 78.033 54.006 77.991 46.229 77.922 C39.451 77.863 32.673 77.824 25.894 77.81 C22.304 77.803 18.715 77.784 15.126 77.741 C11.12 77.692 7.115 77.691 3.108 77.694 C1.917 77.672 0.725 77.651 -0.503 77.628 C-3.52 77.651 -6.245 77.711 -9.188 78.375 C-11.808 81.3 -11.808 81.3 -13.188 84.375 C-15.944 86.551 -17.641 87.305 -21.125 87.75 C-24.827 87.297 -27.079 86.448 -30.188 84.375 C-33.136 80.05 -33.835 76.555 -33.188 71.375 C-31.295 67.439 -29.669 65.687 -26 63.312 C-20.977 62.077 -17.652 62.802 -13.188 65.375 C-11.042 68.003 -9.688 70.374 -8.188 73.375 C34.053 73.375 76.293 73.375 119.812 73.375 C119.812 72.385 119.812 71.395 119.812 70.375 C119.182 70.333 119.182 70.333 115.992 70.121 C107.523 69.273 99.242 67.246 90.938 65.438 C87.608 64.717 84.277 63.999 80.945 63.285 C80.147 63.114 79.35 62.943 78.527 62.766 C73.153 61.626 67.772 60.632 62.339 59.804 C59.504 59.323 56.732 58.678 53.938 58 C47.018 56.347 40.039 55.11 33.03 53.909 C28.362 53.091 23.773 52.145 19.183 50.961 C13.267 49.467 7.327 48.163 1.352 46.93 C0.317 46.714 -0.717 46.499 -1.782 46.277 C-3.945 45.827 -6.108 45.379 -8.271 44.931 C-11.576 44.247 -14.88 43.559 -18.184 42.871 C-20.297 42.432 -22.41 41.993 -24.523 41.555 C-25.505 41.351 -26.486 41.146 -27.497 40.936 C-32.05 39.995 -36.593 39.091 -41.188 38.375 C-41.435 38.973 -41.683 39.571 -41.938 40.188 C-43.462 42.855 -44.455 43.937 -47.188 45.375 C-52.494 45.88 -55.919 45.891 -60.188 42.375 C-62.731 38.175 -62.898 34.166 -62.188 29.375 C-60.129 26.039 -58.448 24.549 -55.188 22.375 C-51.21 21.845 -48.681 21.547 -45.145 23.508 C-41.873 26.085 -40.384 27.667 -39.25 31.75 C-39.229 32.616 -39.209 33.483 -39.188 34.375 C-37.926 34.495 -36.665 34.615 -35.365 34.738 C-29.945 35.344 -24.669 36.419 -19.34 37.562 C-18.307 37.781 -17.274 37.999 -16.21 38.224 C-12.847 38.936 -9.486 39.655 -6.125 40.375 C-3.776 40.875 -1.427 41.375 0.922 41.874 C16.498 45.196 32.047 48.63 47.577 52.159 C60.404 55.072 73.252 57.878 86.113 60.637 C86.821 60.789 87.528 60.941 88.257 61.098 C89.652 61.397 91.047 61.696 92.443 61.994 C96.203 62.8 99.956 63.632 103.704 64.494 C104.517 64.679 105.329 64.864 106.167 65.055 C107.727 65.413 109.287 65.774 110.845 66.14 C114.565 66.989 117.992 67.588 121.812 67.375 C120.974 67.009 120.136 66.642 119.272 66.264 C115.306 64.531 111.34 62.797 107.375 61.062 C106.648 60.744 105.92 60.426 105.171 60.099 C94.839 55.58 84.514 51.044 74.196 46.493 C68.597 44.027 62.989 41.581 57.371 39.156 C56.735 38.881 56.099 38.607 55.443 38.324 C52.866 37.211 50.288 36.098 47.71 34.988 C41.156 32.168 34.625 29.314 28.16 26.293 C27.145 25.82 26.13 25.347 25.085 24.86 C23.205 23.977 21.33 23.085 19.46 22.181 C18.635 21.794 17.811 21.407 16.961 21.008 C16.251 20.666 15.541 20.325 14.81 19.973 C12.381 19.246 11.158 19.461 8.812 20.375 C8.153 21.035 7.493 21.695 6.812 22.375 C2.856 23.339 -0.994 23.587 -5 22.875 C-8.22 20.667 -9.97 18.019 -11.188 14.375 C-11.467 11.478 -11.201 9.106 -10.188 6.375 C-7.688 3.438 -7.688 3.438 -5.188 1.375 C-3.638 -0.175 -2.151 0.094 0 0 Z " fill="#2D5DC6" transform="translate(167.1875,105.625)"/>
<path d="M0 0 C3.671 0.064 4.906 0.428 8.25 2.312 C10.927 5.512 11.008 5.908 11.324 9.723 C11.945 12.758 12.372 14.017 14.802 15.992 C17.546 17.456 20.313 18.687 23.188 19.875 C24.228 20.337 25.269 20.8 26.341 21.276 C28.477 22.222 30.619 23.154 32.768 24.071 C36.238 25.557 39.67 27.116 43.102 28.686 C46.393 30.185 49.697 31.654 53 33.124 C58.462 35.554 63.919 37.995 69.375 40.438 C69.975 40.706 69.975 40.706 73.009 42.063 C84.778 47.337 96.504 52.703 108.225 58.082 C108.945 58.412 109.665 58.742 110.406 59.083 C111.746 59.697 113.085 60.312 114.424 60.928 C118.527 62.809 122.657 64.611 126.812 66.375 C126.493 66.767 126.493 66.767 124.875 68.75 C122.812 71.375 122.812 71.375 121.812 73.375 C121.153 73.375 120.493 73.375 119.812 73.375 C119.812 72.385 119.812 71.395 119.812 70.375 C119.182 70.333 119.182 70.333 115.992 70.121 C107.523 69.273 99.242 67.246 90.938 65.438 C87.608 64.717 84.277 63.999 80.945 63.285 C80.147 63.114 79.35 62.943 78.527 62.766 C73.153 61.626 67.772 60.632 62.339 59.804 C59.504 59.323 56.732 58.678 53.938 58 C47.018 56.347 40.039 55.11 33.03 53.909 C28.362 53.091 23.773 52.145 19.183 50.961 C13.267 49.467 7.327 48.163 1.352 46.93 C0.317 46.714 -0.717 46.499 -1.782 46.277 C-3.945 45.827 -6.108 45.379 -8.271 44.931 C-11.576 44.247 -14.88 43.559 -18.184 42.871 C-20.297 42.432 -22.41 41.993 -24.523 41.555 C-25.505 41.351 -26.486 41.146 -27.497 40.936 C-32.05 39.995 -36.593 39.091 -41.188 38.375 C-41.435 38.973 -41.683 39.571 -41.938 40.188 C-43.462 42.855 -44.455 43.937 -47.188 45.375 C-52.494 45.88 -55.919 45.891 -60.188 42.375 C-62.731 38.175 -62.898 34.166 -62.188 29.375 C-60.129 26.039 -58.448 24.549 -55.188 22.375 C-51.21 21.845 -48.681 21.547 -45.145 23.508 C-41.873 26.085 -40.384 27.667 -39.25 31.75 C-39.229 32.616 -39.209 33.483 -39.188 34.375 C-37.926 34.495 -36.665 34.615 -35.365 34.738 C-29.945 35.344 -24.669 36.419 -19.34 37.562 C-18.307 37.781 -17.274 37.999 -16.21 38.224 C-12.847 38.936 -9.486 39.655 -6.125 40.375 C-3.776 40.875 -1.427 41.375 0.922 41.874 C16.498 45.196 32.047 48.63 47.577 52.159 C60.404 55.072 73.252 57.878 86.113 60.637 C86.821 60.789 87.528 60.941 88.257 61.098 C89.652 61.397 91.047 61.696 92.443 61.994 C96.203 62.8 99.956 63.632 103.704 64.494 C104.517 64.679 105.329 64.864 106.167 65.055 C107.727 65.413 109.287 65.774 110.845 66.14 C114.565 66.989 117.992 67.588 121.812 67.375 C120.974 67.009 120.136 66.642 119.272 66.264 C115.306 64.531 111.34 62.797 107.375 61.062 C106.648 60.744 105.92 60.426 105.171 60.099 C94.839 55.58 84.514 51.044 74.196 46.493 C68.597 44.027 62.989 41.581 57.371 39.156 C56.735 38.881 56.099 38.607 55.443 38.324 C52.866 37.211 50.288 36.098 47.71 34.988 C41.156 32.168 34.625 29.314 28.16 26.293 C27.145 25.82 26.13 25.347 25.085 24.86 C23.205 23.977 21.33 23.085 19.46 22.181 C18.635 21.794 17.811 21.407 16.961 21.008 C16.251 20.666 15.541 20.325 14.81 19.973 C12.381 19.246 11.158 19.461 8.812 20.375 C8.153 21.035 7.493 21.695 6.812 22.375 C2.856 23.339 -0.994 23.587 -5 22.875 C-8.22 20.667 -9.97 18.019 -11.188 14.375 C-11.467 11.478 -11.201 9.106 -10.188 6.375 C-7.688 3.438 -7.688 3.438 -5.188 1.375 C-3.638 -0.175 -2.151 0.094 0 0 Z " fill="#98C1D8" transform="translate(167.1875,105.625)"/>
<path d="M0 0 C43.56 0 87.12 0 132 0 C132.33 1.32 132.66 2.64 133 4 C119.926 7.188 106.836 10.283 93.703 13.219 C82.575 15.717 71.463 18.279 60.363 20.902 C59.67 21.066 58.977 21.23 58.263 21.399 C54.006 22.405 49.749 23.413 45.492 24.421 C10.265 32.764 10.265 32.764 -3.34 35.746 C-4.213 35.938 -5.086 36.129 -5.986 36.326 C-9.814 37.162 -13.645 37.986 -17.479 38.793 C-18.747 39.065 -20.014 39.337 -21.32 39.617 C-21.853 39.729 -21.853 39.729 -24.547 40.292 C-29.054 41.592 -30.521 45.412 -32.781 49.223 C-34 51 -34 51 -36 52 C-40.788 52.584 -44.17 52.43 -48.5 50.188 C-51.836 47.268 -51.944 45.572 -52.375 41.188 C-52.35 37.862 -51.736 36.134 -49.625 33.562 C-46.096 30.118 -44.074 29.604 -39.109 29.641 C-35.366 30.278 -33.578 32.293 -31 35 C-31 35.66 -31 36.32 -31 37 C-30.217 36.814 -29.434 36.628 -28.627 36.437 C-14.143 33.007 0.336 29.616 14.932 26.687 C19.449 25.773 23.921 24.781 28.383 23.625 C36.487 21.566 44.687 19.975 52.883 18.327 C69.856 14.911 86.79 11.357 103.691 7.605 C112.449 5.682 121.226 3.847 130 2 C87.1 2 44.2 2 0 2 C0 1.34 0 0.68 0 0 Z " fill="#7B78CB" transform="translate(157,182)"/>
<path d="M0 0 C3.996 0.833 6.68 3.274 9.137 6.445 C10.074 9.82 10.074 9.82 10.137 12.445 C10.767 12.505 10.767 12.505 13.959 12.809 C19.379 13.414 24.655 14.489 29.984 15.633 C31.018 15.851 32.052 16.07 33.118 16.295 C36.479 17.007 39.839 17.726 43.199 18.445 C45.528 18.941 47.856 19.436 50.185 19.931 C69.317 24.012 88.409 28.262 107.482 32.614 C111.697 33.573 115.915 34.514 120.137 35.445 C120.137 36.105 120.137 36.765 120.137 37.445 C113.06 37.828 106.912 37.105 100.059 35.367 C94.221 33.931 88.276 32.994 82.354 31.979 C77.686 31.161 73.097 30.216 68.508 29.032 C62.591 27.537 56.651 26.234 50.676 25 C50.159 24.892 50.159 24.892 47.542 24.347 C45.379 23.898 43.216 23.449 41.053 23.001 C37.748 22.318 34.444 21.63 31.141 20.941 C29.027 20.502 26.914 20.064 24.801 19.625 C23.819 19.421 22.838 19.217 21.827 19.006 C17.275 18.066 12.731 17.162 8.137 16.445 C7.889 17.043 7.642 17.642 7.387 18.258 C5.863 20.925 4.869 22.007 2.137 23.445 C-3.17 23.951 -6.594 23.961 -10.863 20.445 C-13.406 16.246 -13.573 12.237 -12.863 7.445 C-9.64 2.222 -6.282 -0.163 0 0 Z " fill="#7CBED0" transform="translate(117.86328125,127.5546875)"/>
<path d="M0 0 C0.733 0.008 1.466 0.015 2.221 0.023 C2.95 0.016 3.679 0.008 4.43 0 C8.242 0.014 10.041 0.112 13.283 2.273 C13.656 4.121 13.656 4.121 13.646 6.336 C13.646 7.133 13.645 7.929 13.645 8.75 C13.628 9.583 13.612 10.415 13.596 11.273 C13.597 11.69 13.597 11.69 13.605 13.797 C13.55 20.006 13.55 20.006 11.283 22.273 C8.41 22.472 5.655 22.552 2.783 22.523 C2.391 22.527 2.391 22.527 0.404 22.547 C-5.463 22.527 -5.463 22.527 -7.717 20.273 C-7.976 18.426 -7.976 18.426 -7.982 16.211 C-7.985 15.414 -7.988 14.618 -7.99 13.797 C-7.986 13.381 -7.986 13.381 -7.967 11.273 C-7.975 10.441 -7.982 9.608 -7.99 8.75 C-7.988 7.953 -7.985 7.157 -7.982 6.336 C-7.98 5.605 -7.978 4.874 -7.976 4.121 C-7.328 -0.501 -3.858 0.014 0 0 Z " fill="#1051CA" transform="translate(79.716796875,188.7265625)"/>
<path d="M0 0 C0.425 -0.001 0.425 -0.001 2.574 -0.004 C3.021 -0.002 3.021 -0.002 5.281 0.008 C6.175 0.004 7.068 0 7.988 -0.004 C8.838 -0.003 9.687 -0.001 10.562 0 C11.347 0.001 12.131 0.002 12.939 0.003 C14.781 0.133 14.781 0.133 15.781 1.133 C15.88 2.536 15.912 3.945 15.914 5.352 C15.915 5.776 15.915 5.776 15.918 7.926 C15.914 8.819 15.91 9.712 15.906 10.633 C15.908 11.079 15.908 11.079 15.918 13.34 C15.917 14.189 15.915 15.039 15.914 15.914 C15.913 16.698 15.912 17.483 15.911 18.291 C15.781 20.133 15.781 20.133 14.781 21.133 C12.559 21.424 10.327 21.641 8.094 21.82 C7.483 21.874 7.483 21.874 4.395 22.145 C0.728 22.133 -1.837 21.489 -5.219 20.133 C-5.248 16.987 -5.266 13.841 -5.281 10.695 C-5.29 9.797 -5.298 8.9 -5.307 7.975 C-5.31 7.121 -5.313 6.267 -5.316 5.387 C-5.319 4.991 -5.319 4.991 -5.332 2.99 C-5.113 -0.598 -3.097 0.004 0 0 Z " fill="#2F81C8" transform="translate(63.21875,150.8671875)"/>
<path d="M0 0 C4.411 2.206 4.411 2.206 6 5 C6.782 9.007 6.987 12.923 7 17 C6.34 17 5.68 17 5 17 C4.773 17.619 4.546 18.237 4.312 18.875 C2.522 21.775 1.307 22.209 -2 23 C-6.451 23.162 -9.261 22.519 -12.938 19.938 C-15.515 16.267 -16.306 13.464 -16 9 C-13.078 0.849 -8.316 -1.439 0 0 Z " fill="#15A8A5" transform="translate(172,106)"/>
<path d="M0 0 C3.251 1.667 4.817 3.551 6 7 C6.125 10.25 6.125 10.25 6 13 C5.34 13 4.68 13 4 13 C4.248 13.743 4.495 14.485 4.75 15.25 C5 18 5 18 3.625 20.25 C-0.121 22.747 -3.524 23.326 -8 23 C-11.485 21.353 -13.328 20.023 -15.438 16.812 C-16.265 12.674 -16.233 9.057 -15 5 C-10.731 -0.229 -6.6 -1.157 0 0 Z " fill="#5C3DA0" transform="translate(174,232)"/>
<path d="M0 0 C2.58 1.404 3.951 2.797 6 5 C6 5.99 6 6.98 6 8 C6.99 8 7.98 8 9 8 C9 8.66 9 9.32 9 10 C8.34 10 7.68 10 7 10 C7.33 10.99 7.66 11.98 8 13 C7.074 15.008 7.074 15.008 5.688 17.125 C5.238 17.829 4.788 18.533 4.324 19.258 C3 21 3 21 1 22 C-3.788 22.584 -7.17 22.43 -11.5 20.188 C-14.836 17.268 -14.944 15.572 -15.375 11.188 C-15.35 7.862 -14.736 6.134 -12.625 3.562 C-8.73 -0.239 -5.351 -0.902 0 0 Z " fill="#4C44B6" transform="translate(120,212)"/>
<path d="M0 0 C4.045 0.828 6.757 3.13 9.137 6.438 C9.984 9.253 10.085 11.456 10.137 14.438 C8.487 14.768 6.837 15.097 5.137 15.438 C4.827 16.386 4.518 17.335 4.199 18.312 C3.137 21.438 3.137 21.438 2.137 23.438 C-6.676 23.886 -6.676 23.886 -10.863 20.438 C-13.406 16.238 -13.573 12.229 -12.863 7.438 C-9.644 2.221 -6.281 -0.186 0 0 Z " fill="#1C99B1" transform="translate(117.86328125,127.5625)"/>
<path d="M0 0 C0.165 0.33 0.165 0.33 1 2 C4.63 2 8.26 2 12 2 C9 4 9 4 5.188 3.75 C-3.329 3.542 -11.206 8.587 -18.637 12.332 C-24.655 15.354 -30.761 18.177 -36.875 21 C-38.096 21.565 -39.317 22.13 -40.538 22.696 C-43.076 23.871 -45.614 25.046 -48.153 26.22 C-57.789 30.677 -67.416 35.155 -77.045 39.628 C-79.585 40.808 -82.126 41.984 -84.668 43.16 C-91.418 46.288 -98.097 49.517 -104.707 52.934 C-107 54 -107 54 -109 54 C-109.33 56.97 -109.66 59.94 -110 63 C-110.66 61.68 -111.32 60.36 -112 59 C-111.34 59 -110.68 59 -110 59 C-110.66 56.03 -111.32 53.06 -112 50 C-110.748 49.604 -109.497 49.209 -108.207 48.801 C-102.558 46.915 -97.136 44.582 -91.688 42.188 C-90.662 41.74 -89.637 41.292 -88.58 40.83 C-82.742 38.262 -77.016 35.562 -71.352 32.629 C-65.477 29.774 -59.453 27.249 -53.445 24.689 C-48.946 22.762 -44.505 20.79 -40.141 18.57 C-33.995 15.446 -27.686 12.707 -21.375 9.938 C-14.168 6.772 -7 3.604 0 0 Z " fill="#8D7ABF" transform="translate(290,186)"/>
<path d="M0 0 C0.79 -0.021 1.579 -0.041 2.393 -0.062 C4.684 -0.078 4.684 -0.078 8.562 0.25 C10.645 3.373 10.8 3.789 10.539 7.262 C10.493 7.945 10.448 8.627 10.401 9.331 C10.33 10.191 10.26 11.051 10.188 11.938 C10.084 13.309 10.084 13.309 9.562 20.25 C3.293 20.25 -2.978 20.25 -9.438 20.25 C-9.448 18.693 -9.448 18.693 -9.5 10.812 C-9.509 9.83 -9.518 8.847 -9.528 7.834 C-9.53 7.065 -9.533 6.296 -9.535 5.504 C-9.538 5.109 -9.538 5.109 -9.551 3.108 C-9.263 -1.612 -3.594 0.023 0 0 Z " fill="#20ACA9" transform="translate(97.4375,84.75)"/>
<path d="M0 0 C0.798 0.004 1.596 0.008 2.418 0.012 C3.216 0.008 4.014 0.004 4.836 0 C10.791 0.01 10.791 0.01 11.918 1.137 C12.016 2.467 12.049 3.803 12.051 5.137 C12.052 5.941 12.053 6.745 12.055 7.574 C12.051 8.42 12.047 9.265 12.043 10.137 C12.045 10.56 12.045 10.56 12.055 12.699 C12.053 13.504 12.052 14.308 12.051 15.137 C12.05 15.879 12.049 16.622 12.047 17.387 C11.918 19.137 11.918 19.137 10.918 20.137 C8.075 20.237 5.261 20.275 2.418 20.262 C1.62 20.266 0.822 20.269 0 20.273 C-5.955 20.263 -5.955 20.263 -7.082 19.137 C-7.18 17.806 -7.213 16.471 -7.215 15.137 C-7.216 14.332 -7.217 13.528 -7.219 12.699 C-7.215 11.854 -7.211 11.008 -7.207 10.137 C-7.211 9.291 -7.215 8.445 -7.219 7.574 C-7.218 7.172 -7.218 7.172 -7.215 5.137 C-7.214 4.394 -7.213 3.652 -7.211 2.887 C-6.906 -1.249 -3.347 0.006 0 0 Z " fill="#502F99" transform="translate(95.08203125,263.86328125)"/>
<path d="M0 0 C0.99 0.701 1.98 1.403 3 2.125 C6.464 4.29 7.069 4.116 10.875 3.25 C12.257 2.858 13.635 2.449 15 2 C14.67 2.99 14.34 3.98 14 5 C12.223 5.633 12.223 5.633 10.062 6.125 C7.863 6.852 7.863 6.852 6 8 C5.073 10.324 4.762 12.356 4.547 14.844 C4 17 4 17 2.266 18.754 C-0.356 20.196 -2.022 20.433 -5 20.438 C-5.423 20.447 -5.423 20.447 -7.562 20.496 C-10.873 19.822 -12.012 18.709 -14 16 C-14.8 11.938 -14.639 8.083 -14 4 C-10.599 -0.828 -5.501 -1.039 0 0 Z " fill="#58399E" transform="translate(136,248)"/>
<path d="M0 0 C0.375 0.002 0.375 0.002 2.273 0.012 C3.024 0.008 3.774 0.004 4.547 0 C10.147 0.01 10.147 0.01 11.273 1.137 C11.4 3.795 11.459 6.416 11.461 9.074 C11.473 9.816 11.485 10.558 11.498 11.322 C11.503 13.262 11.395 15.201 11.273 17.137 C9.273 19.137 9.273 19.137 6.086 19.402 C5.457 19.4 5.457 19.4 2.273 19.387 C1.015 19.392 -0.243 19.397 -1.539 19.402 C-4.727 19.137 -4.727 19.137 -6.727 17.137 C-6.898 14.41 -6.959 11.798 -6.914 9.074 C-6.913 8.328 -6.913 7.583 -6.912 6.814 C-6.858 0.196 -6.605 0.012 0 0 Z " fill="#1D64CF" transform="translate(12.7265625,170.86328125)"/>
<path d="M0 0 C43.56 0 87.12 0 132 0 C132.33 1.32 132.66 2.64 133 4 C115.448 8.281 97.855 12.358 80.219 16.276 C78.258 16.717 76.299 17.169 74.346 17.642 C69.789 18.733 65.659 19.224 60.938 19.125 C60.375 19.116 60.375 19.116 57.527 19.07 C57.11 19.059 57.11 19.059 55 19 C58.445 16.703 60.94 16.261 65 15.484 C65.35 15.416 65.35 15.416 67.121 15.071 C68.628 14.778 70.136 14.488 71.644 14.2 C75.619 13.441 79.589 12.66 83.559 11.879 C84.358 11.722 85.157 11.565 85.98 11.404 C94.451 9.731 102.874 7.865 111.295 5.954 C111.799 5.84 111.799 5.84 114.348 5.262 C114.776 5.164 114.776 5.164 116.942 4.667 C121.282 3.72 125.644 2.871 130 2 C87.1 2 44.2 2 0 2 C0 1.34 0 0.68 0 0 Z " fill="#AEB2E2" transform="translate(157,182)"/>
<path d="M0 0 C0.694 -0.021 1.388 -0.041 2.104 -0.062 C4.121 -0.078 4.121 -0.078 7.562 0.25 C9.951 3.833 9.831 5.564 9.812 9.812 C9.818 10.969 9.823 12.125 9.828 13.316 C9.562 16.25 9.562 16.25 7.562 18.25 C5 18.422 2.559 18.483 0 18.438 C-0.698 18.437 -1.396 18.436 -2.115 18.436 C-7.297 18.39 -7.297 18.39 -8.438 17.25 C-8.537 14.573 -8.576 11.927 -8.562 9.25 C-8.566 8.5 -8.57 7.75 -8.574 6.977 C-8.561 -0.572 -6.911 0.051 0 0 Z " fill="#30ABB0" transform="translate(42.4375,116.75)"/>
<path d="M0 0 C0.703 0.004 1.405 0.008 2.129 0.012 C2.831 0.008 3.534 0.004 4.258 0 C9.502 0.01 9.502 0.01 10.629 1.137 C10.702 3.833 10.721 6.504 10.691 9.199 C10.687 9.958 10.682 10.716 10.678 11.498 C10.666 13.378 10.648 15.257 10.629 17.137 C7.777 18.563 5.304 18.269 2.129 18.262 C1.546 18.263 1.546 18.263 -1.402 18.27 C-4.371 18.137 -4.371 18.137 -6.371 17.137 C-6.398 14.491 -6.418 11.845 -6.434 9.199 C-6.442 8.444 -6.45 7.69 -6.459 6.912 C-6.468 4.987 -6.423 3.061 -6.371 1.137 C-4.615 -0.619 -2.335 0.004 0 0 Z " fill="#43309F" transform="translate(31.37109375,219.86328125)"/>
<path d="M0 0 C6.947 -0.316 6.947 -0.316 10 2 C11.953 5.031 13.048 6.988 12.875 10.625 C11.881 13.324 11.01 14.93 9 17 C6.152 17.496 6.152 17.496 2.938 17.438 C2.406 17.437 2.406 17.437 -0.285 17.434 C-0.733 17.362 -0.733 17.362 -3 17 C-5.46 13.31 -5.578 10.284 -5 6 C-3.625 3.5 -3.625 3.5 -2 2 C-1.34 2 -0.68 2 0 2 C0 1.34 0 0.68 0 0 Z " fill="#593CA0" transform="translate(294,171)"/>
<path d="M0 0 C0.33 0 0.66 0 1 0 C0.952 1.044 0.905 2.088 0.855 3.164 C1.259 5.901 1.689 6.762 3.917 8.464 C6.67 9.901 9.455 11.157 12.312 12.375 C13.351 12.843 14.39 13.312 15.46 13.794 C17.601 14.757 19.748 15.707 21.899 16.646 C24.703 17.87 27.491 19.121 30.273 20.391 C37.032 23.468 43.814 26.485 50.621 29.453 C51.542 29.858 52.463 30.264 53.411 30.681 C55.181 31.46 56.955 32.231 58.731 32.995 C59.524 33.344 60.316 33.694 61.133 34.055 C61.833 34.359 62.533 34.663 63.254 34.976 C65 36 65 36 67 39 C60.432 38.53 55.325 36.079 49.438 33.25 C39.673 28.663 29.844 24.269 19.938 20 C19.292 19.721 18.646 19.443 17.981 19.155 C11.658 16.427 5.331 13.709 -1 11 C-0.34 10.67 0.32 10.34 1 10 C0.67 9.34 0.34 8.68 0 8 C-0.134 5.328 -0.043 2.677 0 0 Z " fill="#75C5C8" transform="translate(178,113)"/>
<path d="M0 0 C2.312 1.25 2.312 1.25 4 3 C4.124 3.639 4.248 4.279 4.375 4.938 C5.39 8.285 8.114 9.281 11 11 C8 12 8 12 5 11 C4.763 11.33 4.763 11.33 3.562 13 C0.247 15.588 -1.89 15.404 -5.977 15.336 C-8 15 -8 15 -10 13 C-10.734 10.014 -11.229 7.99 -11 5 C-7.904 0.497 -5.426 -0.924 0 0 Z " fill="#15ACA8" transform="translate(134,103)"/>
<path d="M0 0 C0.165 0.33 0.165 0.33 1 2 C4.63 2 8.26 2 12 2 C9 4 9 4 5.188 3.75 C-3.3 3.543 -11.138 8.552 -18.543 12.285 C-24.474 15.263 -30.479 18.08 -36.498 20.876 C-38.395 21.759 -40.289 22.647 -42.184 23.535 C-43.401 24.102 -44.618 24.668 -45.836 25.234 C-46.924 25.742 -48.013 26.25 -49.134 26.772 C-51.45 27.764 -53.542 28.502 -56 29 C-56.33 28.01 -56.66 27.02 -57 26 C-49.743 22.613 -42.459 19.297 -35.137 16.055 C-34.368 15.714 -33.6 15.374 -32.808 15.023 C-29.629 13.617 -26.45 12.212 -23.27 10.808 C-20.913 9.767 -18.556 8.723 -16.199 7.68 C-15.494 7.369 -14.788 7.059 -14.062 6.739 C-9.301 4.628 -4.644 2.357 0 0 Z " fill="#9E91CD" transform="translate(290,186)"/>
<path d="M0 0 C28.353 -0.558 54.703 1.236 81 13 C80.01 13.66 79.02 14.32 78 15 C78 14.34 78 13.68 78 13 C75.36 12.67 72.72 12.34 70 12 C70 11.34 70 10.68 70 10 C69.01 10.33 68.02 10.66 67 11 C67 10.34 67 9.68 67 9 C65.02 9 63.04 9 61 9 C61 8.34 61 7.68 61 7 C60.73 7.097 60.73 7.097 59.363 7.586 C56.288 8.125 54.186 7.464 51.188 6.625 C47.728 5.695 44.369 4.818 40.812 4.375 C38 4 38 4 37 3 C28.65 1.903 20.158 1.74 11.75 1.438 C10.612 1.394 9.474 1.351 8.301 1.307 C5.534 1.202 2.767 1.1 0 1 C0 0.67 0 0.34 0 0 Z " fill="#76CEC9" transform="translate(248,6)"/>
<path d="M0 0 C2.604 -0.054 5.208 -0.094 7.812 -0.125 C8.55 -0.142 9.288 -0.159 10.049 -0.176 C13.912 -0.211 15.709 -0.194 19 2 C19.372 3.848 19.372 3.848 19.363 6.062 C19.363 6.859 19.362 7.656 19.361 8.477 C19.345 9.309 19.329 10.142 19.312 11 C19.314 11.416 19.314 11.416 19.322 13.523 C19.267 19.733 19.267 19.733 17 22 C14.091 22.145 11.28 22.186 8.375 22.125 C7.573 22.116 6.771 22.107 5.945 22.098 C3.963 22.074 1.982 22.038 0 22 C-0.33 21.34 -0.66 20.68 -1 20 C4.989 18.669 10.897 18.932 17 19 C17 13.39 17 7.78 17 2 C11.06 2 5.12 2 -1 2 C-0.67 1.34 -0.34 0.68 0 0 Z " fill="#7C9FE2" transform="translate(74,189)"/>
<path d="M0 0 C10.244 -0.639 19.381 0.999 29.307 3.308 C31.784 3.883 34.266 4.433 36.75 4.98 C38.328 5.337 39.907 5.695 41.484 6.055 C42.226 6.219 42.967 6.384 43.731 6.554 C45.504 6.972 47.255 7.478 49 8 C49.165 8.33 49.165 8.33 50 10 C44.509 10.142 39.716 9.719 34.316 8.539 C33.617 8.388 32.917 8.238 32.196 8.083 C29.983 7.604 27.773 7.115 25.562 6.625 C24.085 6.304 22.608 5.984 21.131 5.664 C17.085 4.787 13.042 3.895 9 3 C7.997 2.778 6.994 2.556 5.96 2.327 C3.973 1.886 1.987 1.443 0 1 C0 0.67 0 0.34 0 0 Z " fill="#88B1D8" transform="translate(230,164)"/>
<path d="M0 0 C0.798 0.004 1.596 0.008 2.418 0.012 C3.216 0.008 4.014 0.004 4.836 0 C10.791 0.01 10.791 0.01 11.918 1.137 C12.016 2.467 12.049 3.803 12.051 5.137 C12.052 5.941 12.053 6.745 12.055 7.574 C12.051 8.42 12.047 9.265 12.043 10.137 C12.045 10.56 12.045 10.56 12.055 12.699 C12.053 13.504 12.052 14.308 12.051 15.137 C12.05 15.879 12.049 16.622 12.047 17.387 C11.918 19.137 11.918 19.137 10.918 20.137 C8.075 20.237 5.261 20.275 2.418 20.262 C1.62 20.266 0.822 20.269 0 20.273 C-5.955 20.263 -5.955 20.263 -7.082 19.137 C-7.18 17.806 -7.213 16.471 -7.215 15.137 C-7.216 14.332 -7.217 13.528 -7.219 12.699 C-7.215 11.854 -7.211 11.008 -7.207 10.137 C-7.211 9.291 -7.215 8.445 -7.219 7.574 C-7.218 7.172 -7.218 7.172 -7.215 5.137 C-7.214 4.394 -7.213 3.652 -7.211 2.887 C-6.906 -1.249 -3.347 0.006 0 0 Z M-5.082 1.137 C-5.082 6.747 -5.082 12.357 -5.082 18.137 C0.198 18.137 5.478 18.137 10.918 18.137 C10.918 12.527 10.918 6.917 10.918 1.137 C5.638 1.137 0.358 1.137 -5.082 1.137 Z " fill="#9884C2" transform="translate(95.08203125,263.86328125)"/>
<path d="M0 0 C2.97 0 5.94 0 9 0 C9.098 6.934 9.098 6.934 9 9 C8 10 8 10 6.152 10.098 C4.102 10.065 2.051 10.033 0 10 C-0.807 6.055 -1 4 0 0 Z " fill="#7B62B3" transform="translate(72,234)"/>
<path d="M0 0 C0.703 0.004 1.405 0.008 2.129 0.012 C2.831 0.008 3.534 0.004 4.258 0 C9.502 0.01 9.502 0.01 10.629 1.137 C10.702 3.833 10.721 6.504 10.691 9.199 C10.687 9.958 10.682 10.716 10.678 11.498 C10.666 13.378 10.648 15.257 10.629 17.137 C7.777 18.563 5.304 18.269 2.129 18.262 C1.546 18.263 1.546 18.263 -1.402 18.27 C-4.371 18.137 -4.371 18.137 -6.371 17.137 C-6.398 14.491 -6.418 11.845 -6.434 9.199 C-6.442 8.444 -6.45 7.69 -6.459 6.912 C-6.468 4.987 -6.423 3.061 -6.371 1.137 C-4.615 -0.619 -2.335 0.004 0 0 Z M-5.371 2.137 C-5.371 6.757 -5.371 11.377 -5.371 16.137 C-0.421 16.137 4.529 16.137 9.629 16.137 C9.629 11.517 9.629 6.897 9.629 2.137 C4.679 2.137 -0.271 2.137 -5.371 2.137 Z " fill="#B7ACD8" transform="translate(31.37109375,219.86328125)"/>
<path d="M0 0 C0.961 0.234 1.922 0.468 2.912 0.709 C5.255 1.28 7.597 1.856 9.938 2.438 C9.938 3.097 9.938 3.757 9.938 4.438 C1.459 4.896 -5.872 3.505 -14.062 1.438 C-17.389 0.734 -20.723 0.078 -24.062 -0.562 C-18.35 -6.771 -7.04 -1.749 0 0 Z " fill="#75B0CF" transform="translate(228.0625,160.5625)"/>
<path d="M0 0 C-2.395 2.728 -4.805 4.012 -8.105 5.48 C-9.088 5.922 -10.071 6.363 -11.084 6.818 C-11.596 7.044 -11.596 7.044 -14.188 8.188 C-15.223 8.651 -16.259 9.114 -17.326 9.592 C-19.881 10.734 -22.439 11.87 -25 13 C-25.33 12.34 -25.66 11.68 -26 11 C-26.66 10.67 -27.32 10.34 -28 10 C-24.092 8.127 -20.172 6.28 -16.25 4.438 C-15.694 4.171 -15.694 4.171 -12.883 2.822 C-11.813 2.323 -10.743 1.823 -9.641 1.309 C-8.656 0.843 -7.672 0.376 -6.657 -0.104 C-3.862 -1.047 -2.703 -1.057 0 0 Z " fill="#9583C5" transform="translate(235,214)"/>
<path d="M0 0 C1.134 0.021 2.269 0.041 3.438 0.062 C5.057 2.635 5.482 3.739 5.062 6.812 C4.856 7.555 4.65 8.298 4.438 9.062 C0.959 10.222 -1.021 9.771 -4.562 9.062 C-4.66 2.91 -4.66 2.91 -4.562 1.062 C-3.562 0.062 -3.562 0.062 0 0 Z " fill="#4D8AD8" transform="translate(107.5625,167.9375)"/>
<path d="M0 0 C5.611 1.719 10.899 4.051 16.25 6.438 C17.16 6.833 18.07 7.228 19.008 7.635 C19.877 8.022 20.745 8.409 21.641 8.809 C22.43 9.157 23.219 9.506 24.032 9.865 C26 11 26 11 28 14 C21.174 13.55 15.689 10.835 9.562 7.938 C8.545 7.465 7.527 6.993 6.479 6.506 C3.982 5.345 1.489 4.177 -1 3 C-0.67 2.01 -0.34 1.02 0 0 Z " fill="#7CC1CA" transform="translate(217,138)"/>
<path d="M0 0 C0.412 0.006 0.412 0.006 2.496 0.035 C3.322 0.044 4.149 0.053 5 0.062 C5.638 0.074 6.276 0.086 6.934 0.098 C7.031 6.25 7.031 6.25 6.934 8.098 C5.934 9.098 5.934 9.098 4.086 9.195 C2.035 9.163 -0.016 9.13 -2.066 9.098 C-3.433 6.365 -3.195 4.116 -3.066 1.098 C-2.066 0.098 -2.066 0.098 0 0 Z " fill="#66C7C6" transform="translate(74.06640625,122.90234375)"/>
<path d="M0 0 C0.33 0.66 0.66 1.32 1 2 C4.63 2 8.26 2 12 2 C9 4 9 4 5.188 3.75 C-3.323 3.528 -11.341 8.524 -18.625 12.5 C-19.739 12.995 -20.853 13.49 -22 14 C-24.211 13.094 -24.211 13.094 -26 12 C-25.248 11.672 -24.496 11.344 -23.721 11.006 C-20.334 9.527 -16.948 8.045 -13.562 6.562 C-12.378 6.046 -11.194 5.53 -9.975 4.998 C-9.412 4.752 -9.412 4.752 -6.566 3.504 C-6.045 3.276 -6.045 3.276 -3.408 2.123 C-1 1 -1 1 0 0 Z " fill="#A397D3" transform="translate(290,186)"/>
<path d="M0 0 C6.152 -0.098 6.152 -0.098 8 0 C9 1 9 1 9.125 4.5 C9 8 9 8 8 9 C4.5 9.125 4.5 9.125 1 9 C0 8 0 8 -0.098 6.152 C-0.065 4.102 -0.033 2.051 0 0 Z " fill="#88AFE7" transform="translate(43,179)"/>
<path d="M0 0 C0.66 0.33 1.32 0.66 2 1 C-2.393 6.774 -2.393 6.774 -5.383 7.887 C-8.714 9.304 -10.329 11.211 -12.688 13.938 C-13.454 14.813 -14.221 15.688 -15.012 16.59 C-17 19 -17 19 -19 22 C-21.5 23.125 -21.5 23.125 -24 24 C-24.66 24.33 -25.32 24.66 -26 25 C-22.025 16.041 -12.453 9.927 -5 4 C-4.065 3.252 -3.131 2.505 -2.168 1.734 C-1.453 1.162 -0.737 0.59 0 0 Z " fill="#5DBDC0" transform="translate(169,35)"/>
<path d="M0 0 C0 0.66 0 1.32 0 2 C-3.434 2.867 -6.873 3.717 -10.312 4.562 C-11.289 4.809 -12.265 5.056 -13.271 5.311 C-14.209 5.539 -15.147 5.768 -16.113 6.004 C-16.977 6.219 -17.841 6.433 -18.732 6.655 C-21 7 -21 7 -24 6 C-25.664 5.652 -27.33 5.316 -29 5 C-29 4.67 -29 4.34 -29 4 C-8.584 -0.277 -8.584 -0.277 0 0 Z " fill="#8C8BD1" transform="translate(221,200)"/>
<path d="M0 0 C0.375 0.002 0.375 0.002 2.273 0.012 C3.024 0.008 3.774 0.004 4.547 0 C10.147 0.01 10.147 0.01 11.273 1.137 C11.347 3.833 11.366 6.504 11.336 9.199 C11.331 9.958 11.327 10.716 11.322 11.498 C11.31 13.378 11.293 15.257 11.273 17.137 C10.943 17.137 10.613 17.137 10.273 17.137 C9.427 12.056 9.183 7.288 9.273 2.137 C4.323 2.137 -0.627 2.137 -5.727 2.137 C-5.727 7.087 -5.727 12.037 -5.727 17.137 C-6.057 17.137 -6.387 17.137 -6.727 17.137 C-6.753 14.491 -6.773 11.845 -6.789 9.199 C-6.797 8.444 -6.806 7.69 -6.814 6.912 C-6.823 4.987 -6.779 3.061 -6.727 1.137 C-4.905 -0.684 -2.42 0.004 0 0 Z " fill="#87AFE5" transform="translate(12.7265625,170.86328125)"/>
<path d="M0 0 C0.33 0 0.66 0 1 0 C0.988 1.063 0.977 2.127 0.965 3.223 C2 7 2 7 3.676 8.328 C5.934 9.494 8.205 10.489 10.562 11.438 C11.369 11.787 12.175 12.137 13.006 12.498 C14.993 13.357 16.996 14.182 19 15 C18.67 15.495 18.67 15.495 17 18 C10.795 16.064 4.892 13.744 -1 11 C-0.34 10.67 0.32 10.34 1 10 C0.67 9.34 0.34 8.68 0 8 C-0.134 5.328 -0.043 2.677 0 0 Z " fill="#6CC6C5" transform="translate(178,113)"/>
<path d="M0 0 C1.418 0.115 2.834 0.243 4.25 0.375 C5.039 0.445 5.828 0.514 6.641 0.586 C9.086 1.015 10.848 1.786 13 3 C13 3.66 13 4.32 13 5 C7.874 5.103 3.05 5.036 -2 4 C-2.248 4.619 -2.495 5.238 -2.75 5.875 C-4.206 8.351 -5.378 8.951 -8 10 C-6.812 6.562 -6.812 6.562 -5 3 C-2.312 2.062 -2.312 2.062 0 2 C0 1.34 0 0.68 0 0 Z " fill="#52AEC1" transform="translate(128,140)"/>
<path d="M0 0 C-3.292 3.292 -7.747 3.634 -12.188 4.688 C-12.654 4.806 -12.654 4.806 -15.018 5.408 C-20.422 6.705 -24.562 7.241 -30 6 C-27.167 4.459 -24.602 3.567 -21.445 2.93 C-21.014 2.843 -21.014 2.843 -18.832 2.402 C-17.939 2.228 -17.045 2.054 -16.125 1.875 C-15.682 1.784 -15.682 1.784 -13.441 1.324 C-8.893 0.423 -4.662 -0.231 0 0 Z " fill="#A6A3DB" transform="translate(288,185)"/>
<path d="M0 0 C2 2 2 2 2.195 5.039 C2.172 6.222 2.149 7.406 2.125 8.625 C2.107 9.814 2.089 11.002 2.07 12.227 C2.047 13.142 2.024 14.057 2 15 C1.67 15.165 1.67 15.165 0 16 C-0.33 15.34 -0.66 14.68 -1 14 C-1.33 14.33 -1.66 14.66 -2 15 C-4.333 15.041 -6.667 15.042 -9 15 C-8.196 14.237 -7.391 13.474 -6.562 12.688 C-4 10 -4 10 -3 7 C-2.01 7 -1.02 7 0 7 C0 4.69 0 2.38 0 0 Z " fill="#3CAEB6" transform="translate(50,118)"/>
<path d="M0 0 C6.543 0.557 12.212 2.216 18.375 4.438 C19.276 4.75 20.177 5.063 21.105 5.385 C27.736 7.736 27.736 7.736 30 10 C29.01 10.33 28.02 10.66 27 11 C27 10.34 27 9.68 27 9 C24.36 8.67 21.72 8.34 19 8 C19 7.34 19 6.68 19 6 C18.01 6.33 17.02 6.66 16 7 C16 6.34 16 5.68 16 5 C14.02 5 12.04 5 10 5 C10 4.34 10 3.68 10 3 C9.484 3.206 8.969 3.412 8.438 3.625 C4.967 4.159 2.294 3.077 -1 2 C-0.67 1.34 -0.34 0.68 0 0 Z " fill="#67C9C3" transform="translate(299,10)"/>
<path d="M0 0 C3.63 0 7.26 0 11 0 C10.67 0.66 10.34 1.32 10 2 C7.69 1.67 5.38 1.34 3 1 C3.186 1.722 3.371 2.444 3.562 3.188 C4.02 6.128 3.735 8.141 3 11 C2.34 11 1.68 11 1 11 C1 13.31 1 15.62 1 18 C0.67 18 0.34 18 0 18 C0 12.06 0 6.12 0 0 Z " fill="#3C76D9" transform="translate(72,191)"/>
<path d="M0 0 C1.312 2.623 0.896 4.23 0.562 7.125 C0.461 8.035 0.359 8.945 0.254 9.883 C0.17 10.581 0.086 11.28 0 12 C0.99 12.33 1.98 12.66 3 13 C3 13.66 3 14.32 3 15 C6.63 15 10.26 15 14 15 C14 14.01 14 13.02 14 12 C14.99 12 15.98 12 17 12 C15.25 15.875 15.25 15.875 13 17 C10.758 17.238 10.758 17.238 8.125 17.312 C7.693 17.331 7.693 17.331 5.508 17.426 C2.104 16.848 1.001 15.788 -1 13 C-1.426 10.02 -1.426 10.02 -1.312 6.812 C-1.288 5.746 -1.264 4.68 -1.238 3.582 C-1 1 -1 1 0 0 Z " fill="#9783C5" transform="translate(123,251)"/>
<path d="M0 0 C0.66 0 1.32 0 2 0 C1.368 4.676 1.368 4.676 -0.562 6.375 C-2 8 -2 8 -2.25 11.438 C-2.06 14.151 -1.822 16.43 -1 19 C-4.457 16.066 -4.712 13.591 -5.074 9.223 C-4.935 5.068 -2.816 2.816 0 0 Z " fill="#846EB7" transform="translate(163,233)"/>
<path d="M0 0 C0.66 0.33 0.66 0.33 4 2 C6.359 1.758 6.359 1.758 8.75 1.125 C9.549 0.921 10.348 0.718 11.172 0.508 C11.775 0.34 12.378 0.173 13 0 C12 3 12 3 10.152 3.949 C9.787 4.071 9.787 4.071 7.938 4.688 C7.204 4.939 6.471 5.19 5.715 5.449 C5.149 5.631 4.583 5.813 4 6 C3.67 8.31 3.34 10.62 3 13 C2.67 13 2.34 13 2 13 C1.34 8.71 0.68 4.42 0 0 Z " fill="#A99DD0" transform="translate(138,250)"/>
<path d="M0 0 C0 0.66 0 1.32 0 2 C0.66 2.33 1.32 2.66 2 3 C-3.75 6 -3.75 6 -6 6 C-6.33 8.97 -6.66 11.94 -7 15 C-7.66 13.68 -8.32 12.36 -9 11 C-8.34 11 -7.68 11 -7 11 C-7.66 8.03 -8.32 5.06 -9 2 C-2.25 0 -2.25 0 0 0 Z " fill="#9784C2" transform="translate(187,234)"/>
<path d="M0 0 C1.096 0.009 2.191 0.018 3.32 0.027 C4.163 0.039 5.006 0.051 5.875 0.062 C5.875 0.722 5.875 1.382 5.875 2.062 C1.002 3.654 -2.933 4.274 -8.125 4.062 C-8.125 3.072 -8.125 2.083 -8.125 1.062 C-5.36 -0.32 -3.079 -0.033 0 0 Z " fill="#5A53BD" transform="translate(162.125,211.9375)"/>
<path d="M0 0 C7.684 -0.214 14.563 -0.017 22 2 C19.024 3.739 17.222 4.222 13.812 3.75 C13.424 3.697 13.424 3.697 11.461 3.426 C7.606 2.759 3.8 1.925 0 1 C0 0.67 0 0.34 0 0 Z " fill="#96BFDC" transform="translate(230,164)"/>
<path d="M0 0 C0 0.33 0 0.66 0 1 C-8.09 2.958 -15.655 4.519 -24 4 C-24 3.67 -24 3.34 -24 3 C-21.502 2.491 -19.002 1.992 -16.5 1.5 C-15.804 1.357 -15.108 1.214 -14.391 1.066 C-9.509 0.117 -4.973 -0.134 0 0 Z " fill="#64C9C4" transform="translate(248,7)"/>
<path d="M0 0 C0.99 0.33 1.98 0.66 3 1 C2.01 2.98 1.02 4.96 0 7 C-0.66 7 -1.32 7 -2 7 C-2 6.01 -2 5.02 -2 4 C-5.3 3.67 -8.6 3.34 -12 3 C-8.796 0.864 -7.981 0.769 -4.312 0.875 C-3.908 0.884 -3.908 0.884 -1.863 0.93 C-1.556 0.941 -1.556 0.941 0 1 C0 0.67 0 0.34 0 0 Z " fill="#B6C0E4" transform="translate(289,172)"/>
<path d="M0 0 C8.193 -0.63 8.193 -0.63 11.562 2 C12.037 2.66 12.511 3.32 13 4 C7.25 5.125 7.25 5.125 5 4 C5 3.34 5 2.68 5 2 C3.02 2 1.04 2 -1 2 C-0.67 1.34 -0.34 0.68 0 0 Z " fill="#49C3BE" transform="translate(163,106)"/>
<path d="M0 0 C1.98 0 3.96 0 6 0 C6 1.98 6 3.96 6 6 C4.02 6 2.04 6 0 6 C0 4.02 0 2.04 0 0 Z " fill="#0F59CC" transform="translate(44,181)"/>
<path d="M0 0 C1.675 0.286 3.344 0.618 5 1 C5.562 2.938 5.562 2.938 6 5 C5 6 5 6 2.438 6.062 C2.035 6.052 2.035 6.052 0 6 C-0.382 4.344 -0.714 2.675 -1 1 C-0.67 0.67 -0.34 0.34 0 0 Z " fill="#65AAD3" transform="translate(143,153)"/>
<path d="M0 0 C5.94 0 11.88 0 18 0 C18 0.66 18 1.32 18 2 C17.535 1.977 17.535 1.977 15.184 1.859 C2.905 1.501 2.905 1.501 -3 6 C-3.33 4.68 -3.66 3.36 -4 2 C-2.68 2 -1.36 2 0 2 C0 1.34 0 0.68 0 0 Z " fill="#70BAC5" transform="translate(157,82)"/>
<path d="M0 0 C0.33 0.66 0.66 1.32 1 2 C4.63 2 8.26 2 12 2 C8.813 4.124 8.273 4.198 4.688 4 C0.73 3.897 -2.298 4.481 -6 6 C-6.66 5.34 -7.32 4.68 -8 4 C-5.36 2.68 -2.72 1.36 0 0 Z " fill="#BCB3DE" transform="translate(290,186)"/>
<path d="M0 0 C0 0.66 0 1.32 0 2 C-4.229 4.417 -7.123 5.348 -12 5 C-12 5.66 -12 6.32 -12 7 C-14.64 7 -17.28 7 -20 7 C-16.422 5.076 -12.697 3.739 -8.875 2.375 C-7.635 1.929 -6.395 1.483 -5.117 1.023 C-2 0 -2 0 0 0 Z " fill="#8D7DBF" transform="translate(308,288)"/>
<path d="M0 0 C0.66 0.66 1.32 1.32 2 2 C-1.63 2.66 -5.26 3.32 -9 4 C-9 6.97 -9 9.94 -9 13 C-9.33 13 -9.66 13 -10 13 C-10.631 10.137 -11.117 7.888 -11 5 C-7.897 0.487 -5.44 -0.846 0 0 Z " fill="#79D1CD" transform="translate(134,103)"/>
<path d="M0 0 C3.004 0.172 3.004 0.172 6.562 0.75 C7.739 0.93 8.916 1.111 10.129 1.297 C11.076 1.529 12.024 1.761 13 2 C13.33 2.66 13.66 3.32 14 4 C8.211 4.207 3.571 3.592 -2 2 C-1.34 1.34 -0.68 0.68 0 0 Z " fill="#95B0DD" transform="translate(266,170)"/>
<path d="M0 0 C0.572 0.215 1.145 0.431 1.734 0.652 C-0.62 3.379 -2.806 4.64 -6.266 5.652 C-8.426 5.199 -8.426 5.199 -10.266 4.652 C-9.026 3.783 -7.774 2.932 -6.516 2.09 C-5.82 1.614 -5.123 1.139 -4.406 0.648 C-2.266 -0.348 -2.266 -0.348 0 0 Z " fill="#8C7AC0" transform="translate(233.265625,213.34765625)"/>
<path d="M0 0 C0.33 0.165 0.33 0.165 2 1 C2.083 1.598 2.165 2.196 2.25 2.812 C3.414 6.208 6.017 7.223 9 9 C6 10 6 10 3 9 C2.01 9.99 1.02 10.98 0 12 C0.186 11.134 0.371 10.267 0.562 9.375 C1.007 5.948 0.72 3.358 0 0 Z " fill="#95D9D7" transform="translate(136,105)"/>
<path d="M0 0 C4.95 0 9.9 0 15 0 C15 0.66 15 1.32 15 2 C9.624 2.849 5.346 3.002 0 2 C0 1.34 0 0.68 0 0 Z " fill="#7C77C7" transform="translate(26,220)"/>
<path d="M0 0 C7.262 -0.615 7.262 -0.615 11 2.5 C11.66 3.325 12.32 4.15 13 5 C9.25 6.125 9.25 6.125 7 5 C7 3.68 7 2.36 7 1 C4.36 1.33 1.72 1.66 -1 2 C-0.67 1.34 -0.34 0.68 0 0 Z " fill="#5CC1C9" transform="translate(112,128)"/>
<path d="M0 0 C4.62 0 9.24 0 14 0 C11.07 1.954 10.237 2.253 6.938 2.5 C3 3 3 3 1 5 C0.835 4.175 0.835 4.175 0 0 Z " fill="#107CBC" transform="translate(59,153)"/>
<path d="M0 0 C1.65 0 3.3 0 5 0 C5 1.98 5 3.96 5 6 C3.35 6 1.7 6 0 6 C0 4.02 0 2.04 0 0 Z " fill="#0CA0A0" transform="translate(74,125)"/>
<path d="M0 0 C0 0.66 0 1.32 0 2 C2.64 2 5.28 2 8 2 C8 2.33 8 2.66 8 3 C3.71 3.66 -0.58 4.32 -5 5 C-4.34 4.67 -3.68 4.34 -3 4 C-3 3.34 -3 2.68 -3 2 C-3.99 1.67 -4.98 1.34 -6 1 C-3 0 -3 0 0 0 Z " fill="#8C86D0" transform="translate(132,218)"/>
<path d="M0 0 C1.624 -0.081 3.25 -0.139 4.875 -0.188 C5.78 -0.222 6.685 -0.257 7.617 -0.293 C8.01 -0.245 8.01 -0.245 10 0 C10.66 0.99 11.32 1.98 12 3 C10.563 3.081 9.126 3.139 7.688 3.188 C7.287 3.205 7.287 3.205 5.262 3.293 C2.521 2.938 1.708 2.106 0 0 Z " fill="#359CB8" transform="translate(160,148)"/>
<path d="M0 0 C6.4 0.492 6.4 0.492 9.438 3.062 C9.695 3.382 9.695 3.382 11 5 C4.6 4.508 4.6 4.508 1.562 1.938 C1.305 1.618 1.305 1.618 0 0 Z " fill="#51B9BA" transform="translate(194,129)"/>
<path d="M0 0 C-1.98 0.33 -3.96 0.66 -6 1 C-6 1.66 -6 2.32 -6 3 C-7.414 3.366 -8.831 3.717 -10.25 4.062 C-11.039 4.26 -11.828 4.457 -12.641 4.66 C-15.104 5.015 -16.656 4.769 -19 4 C-16.587 3.133 -14.171 2.281 -11.75 1.438 C-11.068 1.191 -10.386 0.944 -9.684 0.689 C-3.417 -1.471 -3.417 -1.471 0 0 Z " fill="#81D3CF" transform="translate(224,12)"/>
<path d="M0 0 C0.66 0.33 1.32 0.66 2 1 C-3.094 7.862 -3.094 7.862 -6.875 8.438 C-7.576 8.293 -8.277 8.149 -9 8 C-6.147 5.068 -3.349 2.357 0 0 Z " fill="#8772BA" transform="translate(332,272)"/>
<path d="M0 0 C0 0.66 0 1.32 0 2 C-1.287 2.697 -2.579 3.382 -3.875 4.062 C-4.235 4.254 -4.235 4.254 -6.055 5.223 C-6.697 5.479 -7.339 5.736 -8 6 C-10 5 -10 5 -11 3 C-4.5 0 -4.5 0 0 0 Z " fill="#998AC8" transform="translate(244,209)"/>
<path d="M0 0 C0.33 0.66 0.66 1.32 1 2 C-1.751 2.917 -3.359 3.109 -6.188 3.062 C-6.817 3.052 -6.817 3.052 -10 3 C-10 2.34 -10 1.68 -10 1 C-6.785 -0.607 -3.564 -0.057 0 0 Z " fill="#524AB8" transform="translate(142,217)"/>
<path d="M0 0 C0.66 0.33 1.32 0.66 2 1 C-3.107 7.712 -3.107 7.712 -8 9 C-8.99 9 -9.98 9 -11 9 C-7.37 6.03 -3.74 3.06 0 0 Z " fill="#6FC6C6" transform="translate(169,35)"/>
<path d="M0 0 C2.31 0 4.62 0 7 0 C6.34 1.65 5.68 3.3 5 5 C4.175 4.67 4.175 4.67 0 3 C0 2.01 0 1.02 0 0 Z " fill="#3E86D9" transform="translate(104,168)"/>
<path d="M0 0 C1.437 -0.081 2.874 -0.139 4.312 -0.188 C4.713 -0.205 4.713 -0.205 6.738 -0.293 C9.479 0.062 10.292 0.894 12 3 C3.429 3.286 3.429 3.286 0 1 C0 0.67 0 0.34 0 0 Z " fill="#3894BA" transform="translate(198,156)"/>
<path d="M0 0 C0.66 0.33 1.32 0.66 2 1 C-1.491 5.004 -3.65 6.627 -9 7 C-6.256 4.053 -3.617 1.808 0 0 Z " fill="#5DC3C2" transform="translate(180,28)"/>
<path d="M0 0 C2 1 2 1 3 3 C-2.75 6 -2.75 6 -5 6 C-5.33 5.01 -5.66 4.02 -6 3 C-4.035 1.932 -2.031 0.934 0 0 Z " fill="#9D8EC8" transform="translate(222,217)"/>
<path d="M0 0 C-3.099 3.099 -5.391 2.99 -9.75 3.062 C-10.822 3.042 -11.895 3.021 -13 3 C-12 1 -12 1 -10.438 0.375 C-6.936 -0.164 -3.542 -0.059 0 0 Z " fill="#8A87CF" transform="translate(262,191)"/>
<path d="M0 0 C0.66 0.33 1.32 0.66 2 1 C1.422 4.35 0.414 5.682 -2 8 C-3.188 10.188 -3.188 10.188 -4 12 C-3.286 3.429 -3.286 3.429 0 0 Z " fill="#62C6C3" transform="translate(160,108)"/>
<path d="M0 0 C2.248 2.052 3.002 3.007 4 6 C2.02 7.32 0.04 8.64 -2 10 C-1.67 8.68 -1.34 7.36 -1 6 C-0.67 6 -0.34 6 0 6 C0 4.02 0 2.04 0 0 Z " fill="#61B0BD" transform="translate(399,80)"/>
<path d="M0 0 C0 0.66 0 1.32 0 2 C1.65 2 3.3 2 5 2 C2.353 3.461 1.106 4 -2 4 C-2 3.34 -2 2.68 -2 2 C-4.31 2 -6.62 2 -9 2 C-5.865 0.142 -3.625 -0.201 0 0 Z " fill="#9391D6" transform="translate(170,210)"/>
<path d="M0 0 C3.947 -0.179 6.598 -0.094 10 2 C10 2.66 10 3.32 10 4 C6.7 3.34 3.4 2.68 0 2 C0 1.34 0 0.68 0 0 Z " fill="#3194B7" transform="translate(187,153)"/>
<path d="M0 0 C5.75 1.75 5.75 1.75 8 4 C7.67 4.66 7.34 5.32 7 6 C1.25 4.25 1.25 4.25 -1 2 C-0.67 1.34 -0.34 0.68 0 0 Z " fill="#87CACF" transform="translate(217,138)"/>
<path d="M0 0 C5.285 -0.44 5.285 -0.44 8 0 C10.5 2.5 10.5 2.5 12 5 C10.373 4.55 8.748 4.089 7.125 3.625 C6.673 3.497 6.673 3.497 4.383 2.852 C2 2 2 2 0 0 Z " fill="#7171AC" transform="translate(202,338)"/>
<path d="M0 0 C0.66 0.33 1.32 0.66 2 1 C1.856 1.536 1.711 2.072 1.562 2.625 C0.905 5.399 0.448 8.185 0 11 C-0.99 11.33 -1.98 11.66 -3 12 C-2.692 10.187 -2.379 8.374 -2.062 6.562 C-1.888 5.553 -1.714 4.544 -1.535 3.504 C-1 1 -1 1 0 0 Z " fill="#6B6EAC" transform="translate(150,267)"/>
<path d="M0 0 C0 0.66 0 1.32 0 2 C-3.981 3.327 -7.85 3.069 -12 3 C-8.624 -0.376 -4.591 -0.131 0 0 Z " fill="#605CBC" transform="translate(221,200)"/>
<path d="M0 0 C3.719 0.507 6.735 1.116 10 3 C10 3.66 10 4.32 10 5 C5.248 4.568 3.08 3.672 0 0 Z " fill="#83BACD" transform="translate(255,156)"/>
<path d="M0 0 C0.33 0 0.66 0 1 0 C1.083 1.093 1.165 2.186 1.25 3.312 C2 7 2 7 4.062 8.938 C4.702 9.288 5.341 9.639 6 10 C5.34 10.33 5.34 10.33 2 12 C1.01 11.34 0.02 10.68 -1 10 C-0.34 10 0.32 10 1 10 C0.67 9.34 0.34 8.68 0 8 C-0.134 5.328 -0.043 2.677 0 0 Z " fill="#8FD5D2" transform="translate(178,113)"/>
<path d="M0 0 C0.66 0.66 1.32 1.32 2 2 C1.625 4.125 1.625 4.125 1 6 C-0.98 6.33 -2.96 6.66 -5 7 C-3.707 4.116 -2.341 2.128 0 0 Z " fill="#4DB3BB" transform="translate(142,60)"/>
<path d="M0 0 C3.937 1.312 6.227 2.919 9 6 C8.34 6.66 7.68 7.32 7 8 C5.5 6.625 5.5 6.625 4 5 C4 4.34 4 3.68 4 3 C2.68 2.67 1.36 2.34 0 2 C0 1.34 0 0.68 0 0 Z " fill="#8D77BE" transform="translate(396,263)"/>
<path d="M0 0 C1 3 1 3 0.375 5.125 C-1 7 -1 7 -3.625 7.75 C-4.017 7.791 -4.017 7.791 -6 8 C-4.02 5.36 -2.04 2.72 0 0 Z " fill="#7F67B7" transform="translate(353,251)"/>
<path d="M0 0 C1.32 0.66 2.64 1.32 4 2 C1.69 3.65 -0.62 5.3 -3 7 C-3 3.483 -2.176 2.629 0 0 Z " fill="#7F6DB7" transform="translate(361,240)"/>
<path d="M0 0 C3.96 0 7.92 0 12 0 C12 0.66 12 1.32 12 2 C10.02 2.33 8.04 2.66 6 3 C6 2.34 6 1.68 6 1 C4.02 1 2.04 1 0 1 C0 0.67 0 0.34 0 0 Z " fill="#7571C8" transform="translate(156,212)"/>
<path d="M0 0 C-1.062 1.5 -1.062 1.5 -3 3 C-6.688 3.188 -6.688 3.188 -10 3 C-10 2.34 -10 1.68 -10 1 C-6.527 -0.158 -3.639 -0.069 0 0 Z " fill="#5554BA" transform="translate(199,205)"/>
<path d="M0 0 C2 3 2 3 1.875 5.438 C0.837 8.478 -0.601 9.911 -3 12 C-2.67 10.35 -2.34 8.7 -2 7 C-1.34 7 -0.68 7 0 7 C0 4.69 0 2.38 0 0 Z " fill="#9B88C6" transform="translate(305,176)"/>
<path d="M0 0 C0.33 0 0.66 0 1 0 C1.33 2.97 1.66 5.94 2 9 C2.66 9 3.32 9 4 9 C4 10.32 4 11.64 4 13 C3.34 13 2.68 13 2 13 C0.216 9.938 -0.229 7.779 -0.125 4.25 C-0.107 3.451 -0.089 2.652 -0.07 1.828 C-0.047 1.225 -0.024 0.622 0 0 Z " fill="#64B9CE" transform="translate(105,135)"/>
<path d="M0 0 C1.65 0 3.3 0 5 0 C4.67 1.65 4.34 3.3 4 5 C2.68 4.67 1.36 4.34 0 4 C0 2.68 0 1.36 0 0 Z " fill="#6CC3CB" transform="translate(150,133)"/>
<path d="M0 0 C-0.639 0.103 -1.279 0.206 -1.938 0.312 C-2.618 0.539 -3.299 0.766 -4 1 C-4.33 1.99 -4.66 2.98 -5 4 C-8.3 3.34 -11.6 2.68 -15 2 C-15 1.67 -15 1.34 -15 1 C-12.876 0.638 -10.751 0.286 -8.625 -0.062 C-8.033 -0.161 -8.033 -0.161 -5.039 -0.66 C-2 -1 -2 -1 0 0 Z " fill="#8E8CC2" transform="translate(179,271)"/>
<path d="M0 0 C0.99 0 1.98 0 3 0 C2.436 3.27 1.5 4.826 -1 7 C-1.66 6.67 -2.32 6.34 -3 6 C-2.01 4.02 -1.02 2.04 0 0 Z " fill="#36A3C2" transform="translate(123,143)"/>
<path d="M0 0 C0.66 0.33 1.32 0.66 2 1 C1.01 2.98 0.02 4.96 -1 7 C-1.99 7 -2.98 7 -4 7 C-2.926 4.085 -2.222 2.222 0 0 Z " fill="#5690DB" transform="translate(139,170)"/>
<path d="M0 0 C0.33 0 0.66 0 1 0 C1 2.64 1 5.28 1 8 C-0.65 8 -2.3 8 -4 8 C-2.68 5.36 -1.36 2.72 0 0 Z " fill="#0C62C4" transform="translate(77,163)"/>
<path d="M0 0 C2.64 0 5.28 0 8 0 C5.64 2.097 4.454 2.969 1.25 3.188 C0.879 3.157 0.879 3.157 -1 3 C-0.67 2.01 -0.34 1.02 0 0 Z " fill="#816CB7" transform="translate(196,229)"/>
<path d="M0 0 C0 0.33 0 0.66 0 1 C-3.3 1 -6.6 1 -10 1 C-7.683 -3.634 -3.886 -1.468 0 0 Z " fill="#0C5BBC" transform="translate(72,170)"/>
<path d="M0 0 C0.33 0.66 0.66 1.32 1 2 C3.062 2.625 3.062 2.625 5 3 C3.35 4.65 1.7 6.3 0 8 C-0.66 7.34 -1.32 6.68 -2 6 C-1.34 6 -0.68 6 0 6 C0 4.02 0 2.04 0 0 Z " fill="#64B4C1" transform="translate(149,86)"/>
<path d="M0 0 C3.912 1.156 6.875 2.355 10 5 C9.01 5.33 8.02 5.66 7 6 C7 5.34 7 4.68 7 4 C6.01 3.835 6.01 3.835 1 3 C0.67 2.01 0.34 1.02 0 0 Z " fill="#5CC3BE" transform="translate(333,22)"/>
<path d="M0 0 C-1.98 0.66 -3.96 1.32 -6 2 C-6 2.66 -6 3.32 -6 4 C-7.65 4 -9.3 4 -11 4 C-8.33 0.737 -4.084 -2.042 0 0 Z " fill="#78CFCD" transform="translate(205,18)"/>
<path d="M0 0 C0.33 0.165 0.33 0.165 2 1 C2 1.99 2 2.98 2 4 C2.66 4 3.32 4 4 4 C3.67 6.97 3.34 9.94 3 13 C2.67 13 2.34 13 2 13 C1.34 8.71 0.68 4.42 0 0 Z " fill="#8E77BF" transform="translate(138,250)"/>
<path d="M0 0 C0 0.33 0 0.66 0 1 C-1.456 1.222 -2.915 1.427 -4.375 1.625 C-5.187 1.741 -5.999 1.857 -6.836 1.977 C-7.55 1.984 -8.264 1.992 -9 2 C-9.66 1.34 -10.32 0.68 -11 0 C-7.182 -1.374 -3.927 -0.68 0 0 Z " fill="#A3A2DC" transform="translate(252,194)"/>
<path d="M0 0 C0.99 0.33 1.98 0.66 3 1 C1.358 3.021 -0.309 5.02 -2 7 C-2.33 7 -2.66 7 -3 7 C-3.188 4.625 -3.188 4.625 -3 2 C-2.01 1.34 -1.02 0.68 0 0 Z " fill="#846EB9" transform="translate(387,290)"/>
<path d="M0 0 C0.278 0.186 0.278 0.186 1.688 1.125 C-0.623 1.785 -2.933 2.445 -5.312 3.125 C-5.973 2.465 -6.632 1.805 -7.312 1.125 C-2.882 -1.09 -2.882 -1.09 0 0 Z " fill="#B1A6D7" transform="translate(271.3125,196.875)"/>
<path d="M0 0 C2.64 0.33 5.28 0.66 8 1 C8 1.66 8 2.32 8 3 C5.657 2.744 3.322 2.407 1 2 C0.67 1.34 0.34 0.68 0 0 Z " fill="#2198B4" transform="translate(142,144)"/>
<path d="M0 0 C1.65 0 3.3 0 5 0 C5 0.66 5 1.32 5 2 C4.34 2 3.68 2 3 2 C2.34 3.32 1.68 4.64 1 6 C0.447 3.924 0 2.156 0 0 Z " fill="#38AEAC" transform="translate(174,121)"/>
<path d="M0 0 C0.99 0.33 1.98 0.66 3 1 C3 1.66 3 2.32 3 3 C3.66 3.33 4.32 3.66 5 4 C4.34 4 3.68 4 3 4 C3 4.66 3 5.32 3 6 C2.01 5.67 1.02 5.34 0 5 C0 3.35 0 1.7 0 0 Z " fill="#0C899F" transform="translate(146,86)"/>
</g>
<g class="wm">
<g transform="translate(0,371)">
<path d="M0 0 C1.186 0.003 2.372 0.005 3.594 0.008 C4.78 0.005 5.966 0.003 7.188 0 C10.094 0.133 10.094 0.133 11.094 1.133 C11.194 4.233 11.23 7.31 11.223 10.41 C11.225 11.384 11.227 12.358 11.228 13.361 C11.233 16.598 11.23 19.834 11.227 23.07 C11.227 25.309 11.228 27.547 11.229 29.785 C11.231 34.483 11.229 39.18 11.224 43.878 C11.218 49.914 11.222 55.951 11.228 61.987 C11.231 66.611 11.23 71.235 11.228 75.859 C11.227 78.085 11.228 80.312 11.23 82.538 C11.233 85.644 11.229 88.75 11.223 91.855 C11.225 92.785 11.227 93.715 11.229 94.673 C11.208 101.019 11.208 101.019 10.094 102.133 C7.741 102.206 5.385 102.217 3.031 102.195 C2.386 102.191 2.386 102.191 -0.879 102.168 C-1.878 102.156 -2.877 102.145 -3.906 102.133 C-3.929 88.981 -3.947 75.83 -3.958 62.678 C-3.963 56.572 -3.97 50.466 -3.982 44.36 C-3.993 38.473 -3.999 32.585 -4.001 26.698 C-4.003 24.446 -4.007 22.195 -4.012 19.943 C-4.019 16.801 -4.02 13.66 -4.02 10.518 C-4.023 9.577 -4.027 8.636 -4.031 7.667 C-4.019 0.184 -4.019 0.184 0 0 Z " transform="translate(309.90625,5.8671875)"/>
<path d="M0 0 C0 8.91 0 17.82 0 27 C6.93 27 13.86 27 21 27 C21.098 36.277 21.098 36.277 21 39 C20 40 20 40 18.051 40.114 C17.218 40.108 16.385 40.103 15.527 40.098 C14.628 40.094 13.729 40.091 12.803 40.088 C12.33 40.084 12.33 40.084 9.938 40.062 C8.988 40.058 8.039 40.053 7.061 40.049 C4.707 40.037 2.354 40.021 0 40 C0.094 45.89 0.2 51.78 0.317 57.67 C0.356 59.673 0.39 61.675 0.422 63.678 C0.468 66.561 0.526 69.442 0.586 72.324 C0.597 73.217 0.609 74.11 0.621 75.03 C0.724 79.391 0.819 83.096 3 87 C8.043 90.263 13.472 88.474 19 87.438 C19.33 87.365 19.33 87.365 21 87 C21.535 88.244 22.052 89.496 22.562 90.75 C22.708 91.098 22.708 91.098 23.441 92.859 C24.093 95.358 23.973 96.62 23 99 C16.484 103.344 8.544 102.727 1 102 C-4.962 100.399 -8.512 97.083 -12 92 C-15.166 86.05 -15.402 81.144 -15.293 74.473 C-15.289 73.484 -15.284 72.495 -15.28 71.476 C-15.263 68.338 -15.226 65.2 -15.188 62.062 C-15.172 59.926 -15.159 57.79 -15.146 55.654 C-15.114 50.436 -15.063 45.218 -15 40 C-15.782 40.012 -16.565 40.023 -17.371 40.035 C-18.383 40.044 -19.395 40.053 -20.438 40.062 C-21.447 40.074 -22.456 40.086 -23.496 40.098 C-26 40 -26 40 -27 39 C-27.099 37.169 -27.13 35.334 -27.125 33.5 C-27.128 32.5 -27.13 31.499 -27.133 30.469 C-27 28 -27 28 -26 27 C-22.37 27 -18.74 27 -15 27 C-15 19.41 -15 11.82 -15 4 C-2.25 -1.125 -2.25 -1.125 0 0 Z " transform="translate(188,7)"/>
<path d="M0 0 C0 7.26 0 14.52 0 22 C6.93 22 13.86 22 21 22 C21.098 31.277 21.098 31.277 21 34 C20 35 20 35 18.051 35.114 C17.218 35.108 16.385 35.103 15.527 35.098 C14.628 35.094 13.729 35.091 12.803 35.088 C12.33 35.084 12.33 35.084 9.938 35.062 C8.988 35.058 8.039 35.053 7.061 35.049 C4.707 35.037 2.354 35.021 0 35 C0.044 40.872 0.114 46.743 0.208 52.615 C0.236 54.611 0.257 56.607 0.271 58.603 C0.292 61.478 0.339 64.352 0.391 67.227 C0.392 68.114 0.393 69.002 0.394 69.917 C0.522 75.365 1.214 78.774 5 83 C10.942 84.585 15.183 83.766 21 82 C21.508 83.247 22.006 84.497 22.5 85.75 C22.778 86.446 23.057 87.142 23.344 87.859 C24 90 24 90 24 94 C16.11 97.865 6.96 98.603 -1.57 96.309 C-7.029 93.828 -10.682 89.974 -13.121 84.47 C-14.324 79.722 -14.247 75.229 -14.195 70.352 C-14.192 69.339 -14.19 68.327 -14.187 67.283 C-14.176 64.064 -14.15 60.844 -14.125 57.625 C-14.115 55.436 -14.106 53.247 -14.098 51.059 C-14.076 45.706 -14.042 40.353 -14 35 C-14.782 35.012 -15.565 35.023 -16.371 35.035 C-17.383 35.044 -18.395 35.053 -19.438 35.062 C-20.447 35.074 -21.456 35.086 -22.496 35.098 C-25 35 -25 35 -26 34 C-26.144 29.998 -26.042 26.006 -26 22 C-22.04 22 -18.08 22 -14 22 C-14 16.39 -14 10.78 -14 5 C-4.5 0 -4.5 0 0 0 Z " transform="translate(510,12)"/>
<path d="M0 0 C2.987 2.12 5.688 4.307 8.125 7.062 C6.699 10.514 5.028 12.164 2 14.312 C1.276 14.833 0.551 15.354 -0.195 15.891 C-0.75 16.277 -1.304 16.664 -1.875 17.062 C-2.081 16.863 -2.081 16.863 -3.125 15.855 C-9.937 9.606 -15.925 7.491 -25.195 7.773 C-31.271 8.429 -36.632 10.59 -40.875 15.062 C-46.201 22.552 -47.135 30.056 -45.875 39.062 C-43.959 45.6 -40.661 50.188 -34.973 53.941 C-28.458 57.423 -22.043 57.667 -14.875 56.062 C-12.056 54.953 -9.492 53.577 -6.875 52.062 C-5.545 51.388 -4.213 50.72 -2.875 50.062 C-2.875 49.403 -2.875 48.743 -2.875 48.062 C0.467 48.659 2.589 49.799 5.125 52.062 C5.125 52.722 5.125 53.382 5.125 54.062 C5.62 54.227 5.62 54.227 8.125 55.062 C7.58 58.827 6.207 60.248 3.25 62.562 C-8.399 71.026 -21.1 71.569 -35.004 69.625 C-43.978 67.378 -51.75 60.64 -56.875 53.062 C-62.23 42.953 -63.578 32.07 -61.191 20.848 C-58.201 12 -52.731 4.243 -44.875 -0.938 C-30.557 -7.864 -13.713 -8.779 0 0 Z " transform="translate(67.875,38.9375)"/>
<path d="M0 0 C4.984 4.026 7.689 9.378 9.688 15.375 C9.775 17.139 9.805 18.906 9.801 20.673 C9.801 21.213 9.801 21.213 9.801 23.948 C9.796 25.114 9.79 26.279 9.785 27.48 C9.784 28.675 9.782 29.869 9.781 31.1 C9.775 34.921 9.763 38.742 9.75 42.562 C9.745 45.15 9.74 47.738 9.736 50.326 C9.725 56.676 9.708 63.025 9.688 69.375 C5.398 69.375 1.108 69.375 -3.312 69.375 C-3.972 67.065 -4.632 64.755 -5.312 62.375 C-6.117 63.138 -6.921 63.901 -7.75 64.688 C-15.779 71.2 -25.48 71.223 -35.394 70.586 C-39.589 70.124 -42.845 68.713 -46.312 66.375 C-46.64 66.163 -46.64 66.163 -48.297 65.09 C-53.216 61.441 -55.404 57.411 -56.312 51.375 C-56.652 43.922 -55.261 38.047 -50.312 32.375 C-43.538 25.456 -33.652 24.238 -24.375 24 C-17.43 24.139 -10.984 25.513 -4.312 27.375 C-6.362 14.957 -6.362 14.957 -11.312 10.625 C-16.947 7.103 -23.923 7.847 -30.312 8.375 C-32.889 9.171 -35.081 10.119 -37.445 11.402 C-39.312 12.375 -39.312 12.375 -43.312 13.375 C-45.623 10.405 -47.933 7.435 -50.312 4.375 C-37.75 -8.188 -14.781 -9.872 0 0 Z M-39.75 41.688 C-41.684 45.014 -42.009 46.585 -41.312 50.375 C-38.435 54.651 -36.178 56.81 -31.312 58.375 C-23.727 59.377 -16.957 58.198 -10.312 54.375 C-7.812 51.875 -7.812 51.875 -6.312 49.375 C-5.9 48.736 -5.488 48.096 -5.062 47.438 C-4.065 44.695 -4.181 42.267 -4.312 39.375 C-9.87 36.169 -15.976 36.172 -22.25 36.125 C-22.927 36.104 -23.605 36.084 -24.303 36.062 C-30.525 36.015 -35.181 37.353 -39.75 41.688 Z " transform="translate(140.3125,38.625)"/>
<path d="M0 0 C5.171 4.312 7.751 9.285 9.125 15.812 C9.21 17.584 9.243 19.358 9.239 21.132 C9.238 21.662 9.238 21.662 9.238 24.346 C9.233 25.485 9.228 26.624 9.223 27.797 C9.221 28.968 9.22 30.138 9.218 31.345 C9.213 35.084 9.2 38.823 9.188 42.562 C9.182 45.098 9.178 47.633 9.174 50.168 C9.163 56.383 9.146 62.598 9.125 68.812 C4.505 68.812 -0.115 68.812 -4.875 68.812 C-5.04 67.657 -5.04 67.657 -5.875 61.812 C-6.371 62.222 -6.868 62.632 -7.379 63.055 C-8.058 63.594 -8.738 64.132 -9.438 64.688 C-10.099 65.221 -10.76 65.755 -11.441 66.305 C-19.742 71.448 -31.62 71.065 -40.957 69.195 C-47.157 67.043 -51.386 63.35 -54.875 57.812 C-57.518 52.14 -57.456 45.794 -55.875 39.812 C-52.657 33.115 -48.579 28.652 -41.578 25.914 C-29.312 21.958 -17.076 23.356 -4.875 26.812 C-5.159 25.061 -5.452 23.311 -5.75 21.562 C-5.912 20.588 -6.075 19.613 -6.242 18.609 C-7.289 13.983 -8.157 12.31 -12.125 9.562 C-18.683 6.552 -26.777 6.503 -33.602 8.684 C-35.938 9.75 -35.938 9.75 -37.91 10.84 C-39.875 11.812 -39.875 11.812 -44.875 12.812 C-46.855 9.843 -48.835 6.873 -50.875 3.812 C-47.992 0.631 -45.36 -1.15 -41.438 -2.875 C-40.511 -3.291 -39.584 -3.708 -38.629 -4.137 C-26.438 -8.788 -10.636 -7.551 0 0 Z M-40.312 41.125 C-42.212 44.392 -42.418 46.087 -41.875 49.812 C-40.399 53.78 -39.127 54.684 -35.312 56.625 C-27.547 59.095 -20.467 58.401 -13.078 55.066 C-9.49 53.024 -7.989 51.427 -5.875 47.812 C-5.226 44.807 -4.95 41.883 -4.875 38.812 C-10.832 36.213 -16.075 35.488 -22.5 35.438 C-23.216 35.424 -23.932 35.41 -24.67 35.396 C-30.855 35.448 -35.702 36.751 -40.312 41.125 Z " transform="translate(276.875,39.1875)"/>
<path d="M0 0 C1.621 1.136 3.175 2.368 4.707 3.621 C3.221 8.214 0.857 11.057 -2.293 14.621 C-2.98 14.272 -3.667 13.922 -4.375 13.562 C-5.276 13.107 -6.177 12.652 -7.105 12.184 C-7.999 11.731 -8.892 11.279 -9.812 10.812 C-14.109 8.749 -17.43 8.459 -22.168 8.434 C-23.382 8.419 -24.597 8.405 -25.848 8.391 C-29.163 8.612 -31.367 9.083 -34.293 10.621 C-35.692 13.42 -35.546 15.526 -35.293 18.621 C-32.843 22.105 -29.281 22.823 -25.355 24.059 C-24.689 24.275 -24.022 24.492 -23.335 24.716 C-20.222 25.725 -17.107 26.673 -13.953 27.551 C-6.564 29.7 -1.337 32.716 3.707 38.621 C6.651 44.274 6.514 50.658 4.707 56.684 C2.417 62.12 -1.857 66.119 -7.241 68.473 C-12.798 70.522 -17.837 71.1 -23.73 70.996 C-24.564 70.986 -25.397 70.976 -26.256 70.965 C-36.976 70.695 -44.37 67.487 -53.293 61.621 C-52.532 56.485 -50.715 54.394 -47.293 50.621 C-43.064 51.481 -39.611 53.454 -35.828 55.465 C-29.288 58.448 -21.689 58.608 -14.855 56.496 C-11.831 55.214 -11.36 54.735 -9.605 51.746 C-9.211 47.806 -9.849 46.699 -12.293 43.621 C-14.719 42.51 -16.822 41.716 -19.355 40.996 C-20.027 40.788 -20.698 40.58 -21.389 40.365 C-24.32 39.463 -27.265 38.629 -30.223 37.816 C-37.987 35.664 -44.827 32.664 -49.293 25.621 C-51.891 20.301 -51.711 15.261 -50.293 9.621 C-47.382 2.833 -43.31 -0.521 -36.66 -3.504 C-25.005 -7.812 -10.601 -6.375 0 0 Z " transform="translate(471.29296875,38.37890625)"/>
<path d="M0 0 C2.439 -0.108 4.873 -0.187 7.312 -0.25 C8.003 -0.284 8.693 -0.317 9.404 -0.352 C11.426 -0.391 11.426 -0.391 15 0 C18.516 3.496 20.156 8.559 22.09 13.043 C22.476 13.926 22.861 14.809 23.259 15.719 C24.49 18.54 25.714 21.363 26.938 24.188 C27.757 26.069 28.576 27.949 29.396 29.83 C30.914 33.311 32.429 36.794 33.941 40.278 C35.935 44.864 37.962 49.434 40 54 C44.193 45.869 47.942 37.639 51.438 29.188 C62.672 2.328 62.672 2.328 65 0 C67.353 -0.073 69.708 -0.084 72.062 -0.062 C72.708 -0.058 72.708 -0.058 75.973 -0.035 C76.972 -0.024 77.971 -0.012 79 0 C78.342 5.145 76.093 9.532 73.938 14.188 C73.117 15.986 72.296 17.784 71.477 19.582 C71.062 20.488 70.647 21.393 70.22 22.327 C68.392 26.332 66.599 30.352 64.812 34.375 C64.483 35.115 64.154 35.856 63.815 36.619 C61.797 41.168 59.823 45.733 57.875 50.312 C56.05 54.599 54.162 58.843 52.188 63.062 C49.52 68.782 47.031 74.567 44.562 80.375 C34.811 103.283 34.811 103.283 31 109 C28.373 109.221 25.991 109.282 23.375 109.188 C22.669 109.174 21.962 109.16 21.234 109.146 C19.489 109.111 17.745 109.057 16 109 C18.074 103.408 20.418 98.075 23.191 92.793 C23.742 91.711 24.294 90.629 24.861 89.514 C25.998 87.291 27.168 85.085 28.369 82.896 C30.577 78.452 32.298 74.941 31.53 69.932 C30.498 67.136 29.324 64.503 27.952 61.857 C26.919 59.841 25.967 57.798 25.024 55.739 C23.202 51.779 21.33 47.845 19.442 43.917 C17.427 39.724 15.429 35.524 13.43 31.324 C13.041 30.51 12.653 29.695 12.253 28.855 C9.234 22.513 6.265 16.152 3.375 9.75 C3.016 8.96 2.656 8.171 2.286 7.357 C0 2.25 0 2.25 0 0 Z " transform="translate(333,34)"/>
</g>
<rect x="8" y="522" width="524" height="6" rx="3.0"/>
</g>
</svg>
